{"glyphs":{"0":{"ha":764,"x_min":1,"x_max":693,"o":"m 693 289 l 599 289 l 599 190 l 500 190 l 500 90 l 200 90 l 200 185 l 101 185 l 101 285 l 1 285 l 1 585 l 96 585 l 96 683 l 196 683 l 196 782 l 494 782 l 494 688 l 594 688 l 594 589 l 693 589 l 693 289 m 494 190 l 494 589 l 396 589 l 396 683 l 200 683 l 200 285 l 300 285 l 300 190 l 494 190 z "},"1":{"ha":764,"x_min":90,"x_max":683,"o":"m 683 90 l 90 90 l 90 188 l 286 188 l 286 582 l 190 582 l 190 683 l 285 683 l 285 782 l 485 782 l 485 192 l 683 192 l 683 90 z "},"2":{"ha":764,"x_min":1,"x_max":693,"o":"m 693 488 l 599 488 l 599 389 l 500 389 l 500 289 l 299 289 l 299 192 l 693 192 l 693 90 l 1 90 l 1 286 l 96 286 l 96 386 l 196 386 l 196 485 l 393 485 l 393 585 l 496 585 l 496 683 l 203 683 l 203 588 l 1 588 l 1 683 l 96 683 l 96 782 l 594 782 l 594 688 l 693 688 l 693 488 z "},"3":{"ha":764,"x_min":1,"x_max":693,"o":"m 693 190 l 599 190 l 599 90 l 101 90 l 101 185 l 1 185 l 1 286 l 197 286 l 197 190 l 496 190 l 496 383 l 200 383 l 200 485 l 294 485 l 294 585 l 396 585 l 396 681 l 101 681 l 101 782 l 693 782 l 693 686 l 599 686 l 599 588 l 497 588 l 497 490 l 594 490 l 594 390 l 693 390 l 693 190 z "},"4":{"ha":764,"x_min":1,"x_max":693,"o":"m 693 289 l 599 289 l 599 90 l 399 90 l 399 285 l 1 285 l 1 485 l 96 485 l 96 585 l 196 585 l 196 683 l 294 683 l 294 782 l 594 782 l 594 390 l 693 390 l 693 289 m 396 389 l 396 583 l 294 583 l 294 485 l 200 485 l 200 389 l 396 389 z "},"5":{"ha":764,"x_min":1,"x_max":693,"o":"m 693 190 l 599 190 l 599 90 l 101 90 l 101 185 l 1 185 l 1 286 l 197 286 l 197 190 l 496 190 l 496 483 l 1 483 l 1 782 l 594 782 l 594 686 l 200 686 l 200 589 l 594 589 l 594 490 l 693 490 l 693 190 z "},"6":{"ha":764,"x_min":1,"x_max":693,"o":"m 693 190 l 599 190 l 599 90 l 101 90 l 101 185 l 1 185 l 1 585 l 96 585 l 96 683 l 196 683 l 196 782 l 594 782 l 594 686 l 301 686 l 301 588 l 200 588 l 200 490 l 594 490 l 594 390 l 693 390 l 693 190 m 494 190 l 494 386 l 200 386 l 200 190 l 494 190 z "},"7":{"ha":764,"x_min":1,"x_max":693,"o":"m 693 588 l 599 588 l 599 488 l 500 488 l 500 389 l 400 389 l 400 90 l 200 90 l 200 386 l 294 386 l 294 485 l 393 485 l 393 585 l 496 585 l 496 683 l 203 683 l 203 588 l 1 588 l 1 782 l 693 782 l 693 588 z "},"8":{"ha":764,"x_min":1,"x_max":693,"o":"m 693 190 l 599 190 l 599 90 l 101 90 l 101 185 l 1 185 l 1 386 l 99 386 l 99 483 l 1 483 l 1 683 l 96 683 l 96 782 l 494 782 l 494 688 l 594 688 l 594 488 l 497 488 l 497 390 l 693 390 l 693 190 m 494 488 l 494 683 l 200 683 l 200 582 l 300 582 l 300 488 l 494 488 m 494 190 l 494 292 l 297 292 l 297 386 l 101 386 l 101 190 l 494 190 z "},"9":{"ha":764,"x_min":1,"x_max":693,"o":"m 693 289 l 599 289 l 599 190 l 500 190 l 500 90 l 101 90 l 101 188 l 393 188 l 393 286 l 496 286 l 496 383 l 101 383 l 101 483 l 1 483 l 1 683 l 96 683 l 96 782 l 594 782 l 594 688 l 693 688 l 693 289 m 494 488 l 494 683 l 200 683 l 200 488 l 494 488 z "}," ":{"ha":178,"x_min":0,"x_max":0,"o":""},"!":{"ha":972,"x_min":32,"x_max":525,"o":"m 525 588 l 431 588 l 431 488 l 331 488 l 331 389 l 232 389 l 232 289 l 131 289 l 131 583 l 229 583 l 229 782 l 525 782 l 525 588 m 128 90 l 32 90 l 32 188 l 128 188 l 128 90 z "},"A":{"ha":764,"x_min":1,"x_max":693,"o":"m 693 90 l 497 90 l 497 288 l 203 288 l 203 90 l 1 90 l 1 585 l 96 585 l 96 683 l 196 683 l 196 782 l 494 782 l 494 688 l 594 688 l 594 589 l 693 589 l 693 90 m 494 389 l 494 589 l 396 589 l 396 683 l 294 683 l 294 583 l 200 583 l 200 389 l 494 389 z "},"B":{"ha":764,"x_min":1,"x_max":693,"o":"m 693 190 l 599 190 l 599 90 l 1 90 l 1 782 l 594 782 l 594 688 l 693 688 l 693 488 l 597 488 l 597 390 l 693 390 l 693 190 m 494 488 l 494 683 l 200 683 l 200 488 l 494 488 m 494 190 l 494 386 l 200 386 l 200 190 l 494 190 z "},"C":{"ha":764,"x_min":1,"x_max":693,"o":"m 693 588 l 497 588 l 497 683 l 301 683 l 301 588 l 200 588 l 200 292 l 297 292 l 297 190 l 493 190 l 493 286 l 693 286 l 693 190 l 599 190 l 599 90 l 200 90 l 200 185 l 101 185 l 101 285 l 1 285 l 1 585 l 96 585 l 96 683 l 196 683 l 196 782 l 594 782 l 594 688 l 693 688 l 693 588 z "},"D":{"ha":764,"x_min":1,"x_max":693,"o":"m 693 289 l 599 289 l 599 190 l 500 190 l 500 90 l 1 90 l 1 782 l 494 782 l 494 688 l 594 688 l 594 589 l 693 589 l 693 289 m 494 289 l 494 589 l 396 589 l 396 683 l 200 683 l 200 190 l 400 190 l 400 289 l 494 289 z "},"E":{"ha":764,"x_min":6,"x_max":706,"o":"m 706 96 l 6 96 l 6 794 l 706 794 l 706 697 l 207 697 l 207 499 l 506 499 l 506 396 l 207 396 l 207 197 l 706 197 l 706 96 z "},"F":{"ha":764,"x_min":1,"x_max":693,"o":"m 693 686 l 200 686 l 200 490 l 594 490 l 594 389 l 203 389 l 203 90 l 1 90 l 1 782 l 693 782 l 693 686 z "},"G":{"ha":764,"x_min":1,"x_max":693,"o":"m 693 90 l 200 90 l 200 185 l 101 185 l 101 285 l 1 285 l 1 585 l 96 585 l 96 683 l 196 683 l 196 782 l 693 782 l 693 686 l 301 686 l 301 588 l 200 588 l 200 292 l 297 292 l 297 190 l 496 190 l 496 383 l 399 383 l 399 485 l 693 485 l 693 90 z "},"H":{"ha":764,"x_min":1,"x_max":693,"o":"m 693 90 l 497 90 l 497 386 l 203 386 l 203 90 l 1 90 l 1 782 l 197 782 l 197 488 l 493 488 l 493 782 l 693 782 l 693 90 z "},"I":{"ha":764,"x_min":71,"x_max":664,"o":"m 664 90 l 71 90 l 71 188 l 267 188 l 267 681 l 71 681 l 71 782 l 664 782 l 664 686 l 468 686 l 468 192 l 664 192 l 664 90 z "},"J":{"ha":764,"x_min":1,"x_max":693,"o":"m 693 190 l 599 190 l 599 90 l 101 90 l 101 185 l 1 185 l 1 286 l 197 286 l 197 190 l 497 190 l 497 782 l 693 782 l 693 190 z "},"K":{"ha":764,"x_min":1,"x_max":693,"o":"m 693 90 l 399 90 l 399 185 l 300 185 l 300 288 l 203 288 l 203 90 l 1 90 l 1 782 l 197 782 l 197 488 l 294 488 l 294 585 l 393 585 l 393 683 l 493 683 l 493 782 l 693 782 l 693 686 l 599 686 l 599 588 l 500 588 l 500 488 l 399 488 l 399 390 l 494 390 l 494 292 l 594 292 l 594 192 l 693 192 l 693 90 z "},"L":{"ha":764,"x_min":-49,"x_max":544,"o":"m 544 90 l -49 90 l -49 782 l 147 782 l 147 192 l 544 192 l 544 90 z "},"M":{"ha":764,"x_min":1,"x_max":693,"o":"m 693 90 l 497 90 l 497 386 l 400 386 l 400 289 l 300 289 l 300 386 l 203 386 l 203 90 l 1 90 l 1 782 l 197 782 l 197 688 l 297 688 l 297 586 l 393 586 l 393 683 l 493 683 l 493 782 l 693 782 l 693 90 z "},"N":{"ha":764,"x_min":1,"x_max":693,"o":"m 693 90 l 497 90 l 497 185 l 399 185 l 399 285 l 300 285 l 300 386 l 203 386 l 203 90 l 1 90 l 1 782 l 197 782 l 197 688 l 297 688 l 297 589 l 396 589 l 396 488 l 493 488 l 493 782 l 693 782 l 693 90 z "},"O":{"ha":764,"x_min":1,"x_max":693,"o":"m 693 190 l 599 190 l 599 90 l 101 90 l 101 185 l 1 185 l 1 683 l 96 683 l 96 782 l 594 782 l 594 688 l 693 688 l 693 190 m 494 190 l 494 683 l 200 683 l 200 190 l 494 190 z "},"P":{"ha":764,"x_min":1,"x_max":693,"o":"m 693 389 l 599 389 l 599 289 l 203 289 l 203 90 l 1 90 l 1 782 l 594 782 l 594 688 l 693 688 l 693 389 m 494 389 l 494 683 l 200 683 l 200 389 l 494 389 z "},"Q":{"ha":764,"x_min":1,"x_max":693,"o":"m 693 289 l 597 289 l 597 192 l 693 192 l 693 90 l 597 90 l 597 188 l 500 188 l 500 90 l 101 90 l 101 185 l 1 185 l 1 683 l 96 683 l 96 782 l 594 782 l 594 688 l 693 688 l 693 289 m 494 389 l 494 683 l 200 683 l 200 190 l 396 190 l 396 292 l 299 292 l 299 389 l 494 389 z "},"R":{"ha":764,"x_min":1,"x_max":693,"o":"m 693 389 l 497 389 l 497 292 l 594 292 l 594 192 l 693 192 l 693 90 l 399 90 l 399 185 l 300 185 l 300 288 l 203 288 l 203 90 l 1 90 l 1 782 l 594 782 l 594 688 l 693 688 l 693 389 m 494 488 l 494 683 l 200 683 l 200 389 l 400 389 l 400 488 l 494 488 z "},"S":{"ha":764,"x_min":1,"x_max":693,"o":"m 693 190 l 599 190 l 599 90 l 101 90 l 101 185 l 1 185 l 1 286 l 197 286 l 197 190 l 496 190 l 496 383 l 101 383 l 101 483 l 1 483 l 1 683 l 96 683 l 96 782 l 494 782 l 494 688 l 594 688 l 594 588 l 399 588 l 399 683 l 200 683 l 200 490 l 594 490 l 594 390 l 693 390 l 693 190 z "},"T":{"ha":764,"x_min":-49,"x_max":544,"o":"m 544 686 l 350 686 l 350 90 l 150 90 l 150 681 l -49 681 l -49 782 l 544 782 l 544 686 z "},"U":{"ha":764,"x_min":1,"x_max":693,"o":"m 693 190 l 599 190 l 599 90 l 101 90 l 101 185 l 1 185 l 1 782 l 197 782 l 197 190 l 493 190 l 493 782 l 693 782 l 693 190 z "},"V":{"ha":764,"x_min":1,"x_max":693,"o":"m 693 389 l 599 389 l 599 289 l 500 289 l 500 190 l 400 190 l 400 90 l 300 90 l 300 185 l 200 185 l 200 285 l 101 285 l 101 383 l 1 383 l 1 782 l 197 782 l 197 490 l 297 490 l 297 388 l 393 388 l 393 485 l 493 485 l 493 782 l 693 782 l 693 389 z "},"W":{"ha":764,"x_min":1,"x_max":693,"o":"m 693 90 l 497 90 l 497 185 l 399 185 l 399 288 l 301 288 l 301 190 l 203 190 l 203 90 l 1 90 l 1 782 l 197 782 l 197 488 l 294 488 l 294 583 l 396 583 l 396 488 l 493 488 l 493 782 l 693 782 l 693 90 z "},"X":{"ha":764,"x_min":1,"x_max":693,"o":"m 693 90 l 497 90 l 497 185 l 399 185 l 399 288 l 301 288 l 301 190 l 203 190 l 203 90 l 1 90 l 1 286 l 96 286 l 96 386 l 197 386 l 197 483 l 101 483 l 101 582 l 1 582 l 1 782 l 197 782 l 197 688 l 297 688 l 297 586 l 393 586 l 393 683 l 493 683 l 493 782 l 693 782 l 693 588 l 599 588 l 599 488 l 497 488 l 497 390 l 594 390 l 594 292 l 693 292 l 693 90 z "},"Y":{"ha":764,"x_min":50,"x_max":643,"o":"m 643 488 l 549 488 l 549 389 l 450 389 l 450 90 l 249 90 l 249 383 l 150 383 l 150 483 l 50 483 l 50 782 l 246 782 l 246 488 l 443 488 l 443 782 l 643 782 l 643 488 z "},"Z":{"ha":764,"x_min":1,"x_max":693,"o":"m 693 588 l 599 588 l 599 488 l 500 488 l 500 389 l 400 389 l 400 289 l 299 289 l 299 192 l 693 192 l 693 90 l 1 90 l 1 286 l 96 286 l 96 386 l 196 386 l 196 485 l 294 485 l 294 585 l 396 585 l 396 681 l 1 681 l 1 782 l 693 782 l 693 588 z "},"a":{"ha":764,"x_min":1,"x_max":693,"o":"m 693 90 l 497 90 l 497 288 l 203 288 l 203 90 l 1 90 l 1 585 l 96 585 l 96 683 l 196 683 l 196 782 l 494 782 l 494 688 l 594 688 l 594 589 l 693 589 l 693 90 m 494 389 l 494 589 l 396 589 l 396 683 l 294 683 l 294 583 l 200 583 l 200 389 l 494 389 z "},"b":{"ha":764,"x_min":1,"x_max":693,"o":"m 693 190 l 599 190 l 599 90 l 1 90 l 1 782 l 594 782 l 594 688 l 693 688 l 693 488 l 597 488 l 597 390 l 693 390 l 693 190 m 494 488 l 494 683 l 200 683 l 200 488 l 494 488 m 494 190 l 494 386 l 200 386 l 200 190 l 494 190 z "},"c":{"ha":764,"x_min":1,"x_max":693,"o":"m 693 588 l 497 588 l 497 683 l 301 683 l 301 588 l 200 588 l 200 292 l 297 292 l 297 190 l 493 190 l 493 286 l 693 286 l 693 190 l 599 190 l 599 90 l 200 90 l 200 185 l 101 185 l 101 285 l 1 285 l 1 585 l 96 585 l 96 683 l 196 683 l 196 782 l 594 782 l 594 688 l 693 688 l 693 588 z "},"d":{"ha":764,"x_min":1,"x_max":693,"o":"m 693 289 l 599 289 l 599 190 l 500 190 l 500 90 l 1 90 l 1 782 l 494 782 l 494 688 l 594 688 l 594 589 l 693 589 l 693 289 m 494 289 l 494 589 l 396 589 l 396 683 l 200 683 l 200 190 l 400 190 l 400 289 l 494 289 z "},"e":{"ha":764,"x_min":6,"x_max":706,"o":"m 706 96 l 6 96 l 6 794 l 706 794 l 706 697 l 207 697 l 207 499 l 506 499 l 506 396 l 207 396 l 207 197 l 706 197 l 706 96 z "},"f":{"ha":764,"x_min":1,"x_max":693,"o":"m 693 686 l 200 686 l 200 490 l 594 490 l 594 389 l 203 389 l 203 90 l 1 90 l 1 782 l 693 782 l 693 686 z "},"g":{"ha":764,"x_min":1,"x_max":693,"o":"m 693 90 l 200 90 l 200 185 l 101 185 l 101 285 l 1 285 l 1 585 l 96 585 l 96 683 l 196 683 l 196 782 l 693 782 l 693 686 l 301 686 l 301 588 l 200 588 l 200 292 l 297 292 l 297 190 l 496 190 l 496 383 l 399 383 l 399 485 l 693 485 l 693 90 z "},"h":{"ha":764,"x_min":1,"x_max":693,"o":"m 693 90 l 497 90 l 497 386 l 203 386 l 203 90 l 1 90 l 1 782 l 197 782 l 197 488 l 493 488 l 493 782 l 693 782 l 693 90 z "},"i":{"ha":764,"x_min":71,"x_max":664,"o":"m 664 90 l 71 90 l 71 188 l 267 188 l 267 681 l 71 681 l 71 782 l 664 782 l 664 686 l 468 686 l 468 192 l 664 192 l 664 90 z "},"j":{"ha":764,"x_min":1,"x_max":693,"o":"m 693 190 l 599 190 l 599 90 l 101 90 l 101 185 l 1 185 l 1 286 l 197 286 l 197 190 l 497 190 l 497 782 l 693 782 l 693 190 z "},"k":{"ha":764,"x_min":1,"x_max":693,"o":"m 693 90 l 399 90 l 399 185 l 300 185 l 300 288 l 203 288 l 203 90 l 1 90 l 1 782 l 197 782 l 197 488 l 294 488 l 294 585 l 393 585 l 393 683 l 493 683 l 493 782 l 693 782 l 693 686 l 599 686 l 599 588 l 500 588 l 500 488 l 399 488 l 399 390 l 494 390 l 494 292 l 594 292 l 594 192 l 693 192 l 693 90 z "},"l":{"ha":764,"x_min":-49,"x_max":544,"o":"m 544 90 l -49 90 l -49 782 l 147 782 l 147 192 l 544 192 l 544 90 z "},"m":{"ha":764,"x_min":1,"x_max":693,"o":"m 693 90 l 497 90 l 497 386 l 400 386 l 400 289 l 300 289 l 300 386 l 203 386 l 203 90 l 1 90 l 1 782 l 197 782 l 197 688 l 297 688 l 297 586 l 393 586 l 393 683 l 493 683 l 493 782 l 693 782 l 693 90 z "},"n":{"ha":764,"x_min":1,"x_max":693,"o":"m 693 90 l 497 90 l 497 185 l 399 185 l 399 285 l 300 285 l 300 386 l 203 386 l 203 90 l 1 90 l 1 782 l 197 782 l 197 688 l 297 688 l 297 589 l 396 589 l 396 488 l 493 488 l 493 782 l 693 782 l 693 90 z "},"o":{"ha":764,"x_min":1,"x_max":693,"o":"m 693 190 l 599 190 l 599 90 l 101 90 l 101 185 l 1 185 l 1 683 l 96 683 l 96 782 l 594 782 l 594 688 l 693 688 l 693 190 m 494 190 l 494 683 l 200 683 l 200 190 l 494 190 z "},"p":{"ha":764,"x_min":1,"x_max":693,"o":"m 693 389 l 599 389 l 599 289 l 203 289 l 203 90 l 1 90 l 1 782 l 594 782 l 594 688 l 693 688 l 693 389 m 494 389 l 494 683 l 200 683 l 200 389 l 494 389 z "},"q":{"ha":764,"x_min":1,"x_max":693,"o":"m 693 289 l 597 289 l 597 192 l 693 192 l 693 90 l 597 90 l 597 188 l 500 188 l 500 90 l 101 90 l 101 185 l 1 185 l 1 683 l 96 683 l 96 782 l 594 782 l 594 688 l 693 688 l 693 289 m 494 389 l 494 683 l 200 683 l 200 190 l 396 190 l 396 292 l 299 292 l 299 389 l 494 389 z "},"r":{"ha":764,"x_min":1,"x_max":693,"o":"m 693 389 l 497 389 l 497 292 l 594 292 l 594 192 l 693 192 l 693 90 l 399 90 l 399 185 l 300 185 l 300 288 l 203 288 l 203 90 l 1 90 l 1 782 l 594 782 l 594 688 l 693 688 l 693 389 m 494 488 l 494 683 l 200 683 l 200 389 l 400 389 l 400 488 l 494 488 z "},"s":{"ha":764,"x_min":1,"x_max":693,"o":"m 693 190 l 599 190 l 599 90 l 101 90 l 101 185 l 1 185 l 1 286 l 197 286 l 197 190 l 496 190 l 496 383 l 101 383 l 101 483 l 1 483 l 1 683 l 96 683 l 96 782 l 494 782 l 494 688 l 594 688 l 594 588 l 399 588 l 399 683 l 200 683 l 200 490 l 594 490 l 594 390 l 693 390 l 693 190 z "},"t":{"ha":764,"x_min":-49,"x_max":544,"o":"m 544 686 l 350 686 l 350 90 l 150 90 l 150 681 l -49 681 l -49 782 l 544 782 l 544 686 z "},"u":{"ha":764,"x_min":1,"x_max":693,"o":"m 693 190 l 599 190 l 599 90 l 101 90 l 101 185 l 1 185 l 1 782 l 197 782 l 197 190 l 493 190 l 493 782 l 693 782 l 693 190 z "},"v":{"ha":764,"x_min":1,"x_max":693,"o":"m 693 389 l 599 389 l 599 289 l 500 289 l 500 190 l 400 190 l 400 90 l 300 90 l 300 185 l 200 185 l 200 285 l 101 285 l 101 383 l 1 383 l 1 782 l 197 782 l 197 490 l 297 490 l 297 388 l 393 388 l 393 485 l 493 485 l 493 782 l 693 782 l 693 389 z "},"w":{"ha":764,"x_min":1,"x_max":693,"o":"m 693 90 l 497 90 l 497 185 l 399 185 l 399 288 l 301 288 l 301 190 l 203 190 l 203 90 l 1 90 l 1 782 l 197 782 l 197 488 l 294 488 l 294 583 l 396 583 l 396 488 l 493 488 l 493 782 l 693 782 l 693 90 z "},"x":{"ha":764,"x_min":1,"x_max":693,"o":"m 693 90 l 497 90 l 497 185 l 399 185 l 399 288 l 301 288 l 301 190 l 203 190 l 203 90 l 1 90 l 1 286 l 96 286 l 96 386 l 197 386 l 197 483 l 101 483 l 101 582 l 1 582 l 1 782 l 197 782 l 197 688 l 297 688 l 297 586 l 393 586 l 393 683 l 493 683 l 493 782 l 693 782 l 693 588 l 599 588 l 599 488 l 497 488 l 497 390 l 594 390 l 594 292 l 693 292 l 693 90 z "},"y":{"ha":764,"x_min":50,"x_max":643,"o":"m 643 488 l 549 488 l 549 389 l 450 389 l 450 90 l 249 90 l 249 383 l 150 383 l 150 483 l 50 483 l 50 782 l 246 782 l 246 488 l 443 488 l 443 782 l 643 782 l 643 488 z "},"z":{"ha":764,"x_min":1,"x_max":693,"o":"m 693 588 l 599 588 l 599 488 l 500 488 l 500 389 l 400 389 l 400 289 l 299 289 l 299 192 l 693 192 l 693 90 l 1 90 l 1 286 l 96 286 l 96 386 l 196 386 l 196 485 l 294 485 l 294 585 l 396 585 l 396 681 l 1 681 l 1 782 l 693 782 l 693 588 z "},"ґ":{"ha":1389,"x_min":0,"x_max":0,"o":""}}}
